<?xml version="1.0" ?><!DOCTYPE svg  PUBLIC '-//W3C//DTD SVG 1.1//EN'  'http://www.w3.org/Graphics/SVG/1.1/DTD/svg11.dtd'><svg height="32px" style="fill-rule:evenodd;clip-rule:evenodd;stroke-linejoin:round;stroke-miterlimit:2;" version="1.1" width="32px" xml:space="preserve" xmlns="http://www.w3.org/2000/svg" xmlns:serif="http://www.serif.com/" xmlns:xlink="http://www.w3.org/1999/xlink"><path d="M26.5,18.5c0,-0.276 -0.224,-0.5 -0.5,-0.5l-20,0c-0.276,0 -0.5,0.224 -0.5,0.5l0,10c0,0.276 0.224,0.5 0.5,0.5l20,0c0.276,0 0.5,-0.224 0.5,-0.5l-0,-10Z" style="fill:#8ac4d0;"/><path d="M7,18l-1,0c-0.276,0 -0.5,0.224 -0.5,0.5l0,10c0,0.276 0.224,0.5 0.5,0.5l1,0c-0.276,0 -0.5,-0.224 -0.5,-0.5l0,-10c0,-0.276 0.224,-0.5 0.5,-0.5Z" style="fill:#a4cfd8;"/><path d="M21.5,16.5c0,-0.276 -0.224,-0.5 -0.5,-0.5l-10,-0c-0.276,-0 -0.5,0.224 -0.5,0.5l-0,2c-0,0.276 0.224,0.5 0.5,0.5l10,0c0.276,0 0.5,-0.224 0.5,-0.5l0,-2Zm-5.5,-6c-1.38,0 -2.5,1.117 -2.5,2.5c0,1.383 1.12,2.5 2.5,2.5c1.38,0 2.5,-1.117 2.5,-2.5c0,-1.383 -1.12,-2.5 -2.5,-2.5Z" style="fill:#f4d160;"/><path d="M12,16l-1,-0c-0.276,-0 -0.5,0.224 -0.5,0.5l-0,2c-0,0.276 0.224,0.5 0.5,0.5l1,0c-0.276,0 -0.5,-0.224 -0.5,-0.5l0,-2c0,-0.276 0.224,-0.5 0.5,-0.5Zm4.5,-0.55c-1.141,-0.231 -2,-1.239 -2,-2.45c0,-1.211 0.859,-2.219 2,-2.45c-0.162,-0.033 -0.329,-0.05 -0.5,-0.05c-1.38,0 -2.5,1.117 -2.5,2.5c0,1.383 1.12,2.5 2.5,2.5c0.171,0 0.338,-0.017 0.5,-0.05Z" style="fill:#dcc26f;"/><path d="M23,5c-0.043,-0 -8.909,0.016 -8.909,0.016c-0.378,-0 -0.743,0.143 -1.02,0.4l-3.742,3.407c-0.324,0.299 -0.54,0.7 -0.54,1.143c-0,0.884 0.792,1.639 1.809,1.639c0.456,-0 0.913,-0.166 1.225,-0.414c0.228,-0.182 2.735,-1.797 3.324,-2.176l3.427,-0.002l-0.096,0.077c-0.324,0.299 -0.54,0.699 -0.54,1.142c-0,0.885 0.792,1.639 1.808,1.639c0.456,0 0.914,-0.166 1.226,-0.414c0.191,-0.152 1.598,-1.392 2.359,-2.065c0.113,-0.1 0.17,-0.239 0.169,-0.379l-0,-3.513c-0,-0.276 -0.224,-0.5 -0.5,-0.5Z" style="fill:#fbeeac;"/><path d="M18.573,9.014l-0.095,0.076c-0.324,0.299 -0.54,0.699 -0.54,1.142c-0,0.885 0.792,1.639 1.808,1.639c0.207,0 0.413,-0.034 0.606,-0.094c-0.708,-0.228 -1.203,-0.846 -1.203,-1.545c-0,-0.443 0.216,-0.843 0.54,-1.142l0.096,-0.077l-1.212,0.001Zm-7.37,2.497c-0.708,-0.229 -1.203,-0.847 -1.203,-1.545c-0,-0.443 0.216,-0.844 0.54,-1.143l3.742,-3.407c0.278,-0.257 0.642,-0.4 1.02,-0.4c0,-0 5.327,-0.01 7.743,-0.014c-0.015,-0.001 -0.03,-0.002 -0.045,-0.002c-0.043,-0 -8.909,0.016 -8.909,0.016c-0.378,-0 -0.743,0.143 -1.02,0.4l-3.742,3.407c-0.324,0.299 -0.54,0.7 -0.54,1.143c-0,0.884 0.792,1.639 1.809,1.639c0.206,-0 0.412,-0.034 0.605,-0.094Z" style="fill:#e7dfb6;"/><path d="M26.5,3.5c0,-0.133 -0.053,-0.261 -0.147,-0.354c-0.095,-0.094 -0.222,-0.147 -0.355,-0.146c-0,0 -1.132,0.005 -2.005,0.009c-0.826,0.004 -1.493,0.675 -1.493,1.5l0,5.007c0,0.828 0.672,1.5 1.5,1.5l2,-0c0.276,-0 0.5,-0.224 0.5,-0.5l0,-7.016Z" style="fill:#8ac4d0;"/><path d="M24,11.016l1,-0c-0.828,-0 -1.5,-0.672 -1.5,-1.5l0,-5.007c0,-0.825 0.667,-1.496 1.493,-1.5c0,0 -0.127,-0.004 -1,0c-0.826,0.004 -1.493,0.675 -1.493,1.5l0,5.007c0,0.828 0.672,1.5 1.5,1.5Z" style="fill:#a4cfd8;"/></svg>