<?xml version="1.0" ?><svg viewBox="0 0 60 60" xmlns="http://www.w3.org/2000/svg"><defs><style>.a{fill:none;stroke:#1c4db8;stroke-linecap:round;stroke-linejoin:round;stroke-width:1.5px;}.b{fill:#e82e5f;}</style></defs><title/><path class="a" d="M57.41,17.484C57.41,9.209,48.44,2.5,37.374,2.5S17.337,9.209,17.337,17.484c0,7.055,6.527,12.955,15.305,14.547a35.334,35.334,0,0,1-4.749,4.748C37.262,38.48,57.41,30.7,57.41,17.484Z"/><path class="a" d="M2.59,55.626A8.424,8.424,0,0,1,11.013,47.2h.437c8.3,0,8.6,5.886,12.7,4.943,3.047-.7,4.01-7.057,5.26-10.887a1.361,1.361,0,0,1,1.561-.913,1.463,1.463,0,0,1,1.116,1.849l-.58,2.707,2.518,1.706a1.01,1.01,0,0,1,.438.92c-.118,1.371-.693,3.781-3.131,3.389C29.9,54.778,27.218,57.5,23.19,57.5a15.131,15.131,0,0,1-7.7-2.643"/><circle class="a" cx="13.341" cy="38.703" r="8.499"/><path class="a" d="M4.842,38.7a8.455,8.455,0,0,0,1,4c7.5-.092,12.629-3.081,12.875-10.584A8.5,8.5,0,0,0,4.842,38.7Z"/><path class="b" d="M45.383,22.493h0a1.624,1.624,0,0,1,.674,3.1l-5.448,2.48a1.624,1.624,0,0,1-1.351-2.954l5.448-2.48a1.63,1.63,0,0,1,.677-.148m0-1a2.617,2.617,0,0,0-1.091.238l-5.448,2.48a2.624,2.624,0,0,0,2.179,4.774l5.448-2.48a2.624,2.624,0,0,0-1.088-5.012Z"/><path class="b" d="M36.073,25.151a4.084,4.084,0,0,1,2.151-2.3l1.736-.791v-2.59h4.626A2.013,2.013,0,0,0,46.6,17.452V14.463a2.013,2.013,0,0,0-2.013-2.013H39.96V7.824a2.013,2.013,0,0,0-2.013-2.013H34.958a2.013,2.013,0,0,0-2.013,2.013V12.45H28.319a2.012,2.012,0,0,0-2.012,2.013v2.989a2.013,2.013,0,0,0,2.012,2.013h4.626v4.626A2.012,2.012,0,0,0,34.958,26.1h.882A4.216,4.216,0,0,1,36.073,25.151Z"/><path class="b" d="M41.609,22.952l2.724-1.24a2.624,2.624,0,1,1,2.174,4.777l-2.724,1.24Z"/></svg>